<svg width="18" height="23" viewBox="0 0 18 23" fill="none" xmlns="http://www.w3.org/2000/svg">
<path id="Vector" d="M8.0599 21.6011C7.36548 20.5594 6.43959 19.2863 5.28223 17.666C3.8934 15.6985 2.96751 14.3096 2.6203 13.6152C1.92589 12.6893 1.46294 11.8791 1.23147 11.1847C1 10.4904 1 9.6802 1 8.87005C1 7.48122 1.3472 6.09238 2.04162 4.93502C2.73604 3.77766 3.66192 2.73604 4.93502 2.04162C6.09238 1.34721 7.48122 1 8.87009 1C10.2588 1 11.6477 1.34721 12.805 2.04162C13.9624 2.73604 15.0041 3.66193 15.6985 4.93502C16.3929 6.09238 16.7401 7.48122 16.7401 8.87005C16.7401 9.79594 16.6244 10.4904 16.3929 11.1847C16.1614 11.8791 15.6985 12.6893 15.1198 13.7309C14.6568 14.4254 13.7309 15.6985 12.4578 17.7817L9.68025 21.7168C9.44878 21.9483 9.21731 22.064 8.87009 22.064C8.52284 22.064 8.17563 21.9483 8.0599 21.6011ZM8.87009 12.1106C9.79588 12.1106 10.606 11.7634 11.1847 11.1847C11.8792 10.4904 12.1106 9.79594 12.1106 8.87005C12.1106 7.94416 11.7634 7.134 11.1847 6.55533C10.4903 5.86092 9.79588 5.51371 8.87009 5.51371C7.94416 5.51371 7.134 5.86092 6.55533 6.55533C5.86091 7.134 5.51371 7.94416 5.51371 8.87005C5.51371 9.79594 5.86091 10.4904 6.55533 11.1847C7.134 11.8791 7.94416 12.1106 8.87009 12.1106Z" stroke="#025319" stroke-width="1.8" stroke-linecap="round" stroke-linejoin="round"/>
</svg>
