<svg width="34" height="29" viewBox="0 0 34 29" fill="none" xmlns="http://www.w3.org/2000/svg">
<path d="M19.2103 23.5986L6.63052 18.1548L3.95947 22.7804L18.1126 25.501L19.2103 23.5982V23.5986ZM17.4576 29H21.6412L25.3174 22.6332L28.9932 29H33.1761L25.3174 15.3865L17.4576 29ZM3.3352 23.8644L0.369019 29H16.0929L17.4876 26.5843L3.3352 23.8644ZM24.6352 14.2052L16.7733 0.587402L13.8038 5.73129L23.2391 16.6238L24.6352 14.2056V14.2052ZM22.6138 17.7078L13.1778 6.81346L10.5096 11.4369L21.5153 19.6099L22.6138 17.7078ZM20.9207 20.6364L9.91318 12.4691L7.22549 17.1255L19.8064 22.5706L20.9207 20.6367V20.6364Z" fill="#007031"/>
</svg>
