<svg width="30" height="34" viewBox="0 0 30 34" fill="none" xmlns="http://www.w3.org/2000/svg">
<rect x="12" y="11" width="16" height="12" fill="#B7E4CD"/>
<rect x="11" y="10" width="18" height="13" rx="1" stroke="#007031" stroke-width="2"/>
<path d="M11 8V25.5" stroke="#007031" stroke-width="2" stroke-linecap="round"/>
<path d="M29 13L12 13" stroke="#007031" stroke-width="2" stroke-linecap="round"/>
<path d="M29 16L12 16" stroke="#007031" stroke-width="2" stroke-linecap="round"/>
<path d="M24 20L26 20" stroke="#007031" stroke-width="2" stroke-linecap="round"/>
<path d="M20.5 9.5V3C20.5 1.89543 19.6046 1 18.5 1H3C1.89543 1 1 1.89543 1 3V31C1 32.1046 1.89543 33 3 33H18.5C19.6046 33 20.5 32.1046 20.5 31V24.5" stroke="#007031" stroke-width="2" stroke-linecap="round"/>
<path d="M17 10V7C17 5.89543 16.1046 5 15 5L7 5C5.89543 5 5 5.89543 5 7V27C5 28.1046 5.89543 29 7 29H15C16.1046 29 17 28.1046 17 27V24" stroke="#007031" stroke-width="2" stroke-linecap="round"/>
</svg>
