<svg width="18" height="23" viewBox="0 0 18 23" fill="none" xmlns="http://www.w3.org/2000/svg">
<path id="Vector (Stroke)" fill-rule="evenodd" clip-rule="evenodd" d="M5.21371 1.83715C5.18498 1.85171 5.15461 1.8654 5.12259 1.87788L2.38939 3.70001C2.22279 3.82393 2.01071 4.11779 1.88968 4.69873C1.76914 5.27729 1.75997 6.05479 1.92478 6.98875L1.92627 6.99719L1.92623 6.99719C2.26426 9.02532 3.17467 11.5389 4.66216 13.8273C6.1775 16.1586 7.90078 18.0986 9.58027 19.3303C9.59527 19.3413 9.60992 19.3528 9.6242 19.3647C10.2028 19.8469 10.8976 20.1571 11.6478 20.375C11.98 20.4337 12.327 20.3776 12.6264 20.2465L15.256 18.0744L15.3039 18.0265L11.5595 14.6331L11.358 14.8347C11.3279 14.8648 11.2956 14.8927 11.2616 14.9183C10.366 15.59 9.08934 15.3549 8.44757 14.4992C8.43758 14.4859 8.42796 14.4723 8.41873 14.4585C8.25447 14.2121 8.07911 13.9711 7.8875 13.7078C7.81419 13.6071 7.7385 13.5031 7.66014 13.3943C7.3915 13.0212 7.10647 12.6111 6.84765 12.1616C6.35204 11.4154 5.85194 10.5398 5.47124 9.65149L5.46284 9.63122C5.04633 8.58994 5.49323 7.58046 6.23665 7.02289L6.23666 7.02288L6.71484 6.66425C6.72272 6.65834 6.73069 6.65256 6.73875 6.64692L5.21371 1.83715ZM6.75813 6.70795C6.75821 6.70884 6.75829 6.71014 6.75829 6.71181C6.75829 6.71523 6.75796 6.71708 6.75796 6.7171C6.75795 6.71712 6.75824 6.71544 6.75942 6.71182L6.75965 6.7125C6.75957 6.71226 6.75949 6.71203 6.75942 6.71181M6.9244 1.27695C6.66081 0.293734 5.69666 -0.137337 4.84157 0.0383021C4.79518 0.0445688 4.74825 0.0540844 4.70114 0.067275C4.60494 0.0942062 4.52103 0.132798 4.44948 0.175727C4.41775 0.194759 4.38949 0.214029 4.36477 0.232326C4.32342 0.251563 4.28342 0.273995 4.24515 0.299506L1.37607 2.21224C1.36802 2.2176 1.36005 2.2231 1.35218 2.22872C0.683263 2.70652 0.303149 3.48855 0.127511 4.33161C-0.0505865 5.18648 -0.0416654 6.20065 0.151422 7.29731C0.531211 9.572 1.53328 12.3165 3.15297 14.8083C4.73969 17.2494 6.59459 19.3671 8.49385 20.7657C9.33454 21.4594 10.2906 21.8594 11.1917 22.1168C11.215 22.1235 11.2386 22.1292 11.2624 22.134C12.0846 22.2984 12.8853 22.1322 13.515 21.8174C13.5759 21.7869 13.6331 21.7496 13.6856 21.7062L16.4353 19.4349C16.4573 19.4167 16.4783 19.3976 16.4985 19.3774L16.618 19.2579L16.0306 18.6704L16.618 19.2579C16.942 18.9339 17.1506 18.5038 17.1506 18.0238C17.1506 17.5438 16.942 17.1136 16.618 16.7897C16.6076 16.7793 16.5969 16.7691 16.586 16.7592L12.7731 13.3037C12.286 12.8343 11.3536 12.5759 10.5811 13.0908C10.5317 13.1237 10.4857 13.1613 10.4438 13.2033L10.153 13.494C10.1267 13.5047 10.089 13.5113 10.0401 13.5036C9.97506 13.4933 9.92545 13.4627 9.89618 13.4297C9.715 13.1597 9.51502 12.885 9.32322 12.6215C9.2543 12.5268 9.18644 12.4335 9.12088 12.3425C8.85695 11.9759 8.61007 11.6179 8.39488 11.2414C8.38463 11.2234 8.37376 11.2058 8.3623 11.1886C7.90952 10.5095 7.46272 9.72605 7.13105 8.95489C7.09557 8.86162 7.09918 8.78453 7.1224 8.71488C7.14881 8.63566 7.20983 8.543 7.31666 8.46288L7.70637 8.1706C8.12049 7.97186 8.3582 7.60758 8.46728 7.28033C8.5878 6.91875 8.58862 6.51289 8.46973 6.1507L6.9244 1.27695Z" fill="#025319"/>
</svg>
