<svg width="26" height="34" viewBox="0 0 26 34" fill="none" xmlns="http://www.w3.org/2000/svg">
<rect y="2" width="26" height="16" rx="2" fill="#B7E4CD"/>
<rect x="1" y="1" width="24" height="32" rx="1" stroke="#007031" stroke-width="2"/>
<path d="M7.44 11.97H6.02C6.01 12.17 5.99 12.37 5.91 12.52C5.83 12.69 5.69 12.8 5.43 12.8C5.17 12.8 5.03 12.68 4.95 12.52C4.78 12.19 4.76 11.3 4.76 10.44C4.76 9.58 4.78 8.69 4.95 8.36C5.03 8.2 5.17 8.08 5.43 8.08C5.69 8.08 5.83 8.18 5.91 8.35C5.99 8.5 6.01 8.7 6.02 8.9H7.44C7.41 8.22 7.17 7.66 6.8 7.31C6.44 6.97 6.02 6.8 5.43 6.8C4.66 6.8 4.19 7.12 3.87 7.52C3.37 8.13 3.34 9.07 3.34 10.44C3.34 11.81 3.37 12.75 3.87 13.36C4.19 13.76 4.66 14.08 5.43 14.08C6.02 14.08 6.44 13.91 6.8 13.57C7.17 13.22 7.41 12.65 7.44 11.97ZM12.5175 14V6.88H11.0975V10.38C10.9275 10.4 10.8075 10.41 10.5975 10.41C10.1075 10.41 9.9575 10.22 9.9575 9.68V6.88H8.5375V9.83C8.5375 11.13 8.9775 11.69 10.3575 11.69C10.5975 11.69 10.8375 11.68 11.0975 11.65V14H12.5175ZM17.298 14V12.72H15.438V11.05H17.038V9.77H15.438V8.16H17.298V6.88H14.018V14H17.298ZM22.0384 8.16V6.88H18.2184V8.16H19.4184V14H20.8384V8.16H22.0384Z" fill="#007031"/>
<line x1="1" y1="19" x2="26" y2="19" stroke="#007031" stroke-width="2"/>
<line x1="21" y1="19" x2="21" y2="33" stroke="#007031" stroke-width="2"/>
</svg>
