<svg width="20" height="20" viewBox="0 0 20 20" fill="none" xmlns="http://www.w3.org/2000/svg">
<circle cx="10" cy="10" r="9" fill="white" stroke="#007031" stroke-width="2"/>
<path d="M13.112 7.888C13.112 5.942 11.628 4.948 9.976 4.948C8.282 4.948 6.84 5.998 6.84 7.902H9.136C9.136 7.398 9.388 7.02 9.976 7.02C10.536 7.02 10.816 7.384 10.816 7.874C10.816 8.098 10.648 8.42 10.438 8.658L9.458 9.806C9.038 10.296 8.884 10.73 8.884 11.36V11.682H11.18V11.556C11.18 11.318 11.306 11.052 11.432 10.898L12.398 9.68C12.79 9.176 13.112 8.616 13.112 7.888ZM11.208 15V12.746H8.856V15H11.208Z" fill="#007031"/>
</svg>
