<svg width="53" height="54" viewBox="0 0 53 54" fill="none" xmlns="http://www.w3.org/2000/svg">
<g clip-path="url(#clip0_230_10490)">
<circle cx="25.6469" cy="26.4711" r="17.2719" fill="white"/>
<mask id="path-2-outside-1_230_10490" maskUnits="userSpaceOnUse" x="-0.638672" y="2.18652" width="52" height="51" fill="black">
<rect fill="white" x="-0.638672" y="2.18652" width="52" height="51"/>
<path d="M15.8171 41.1566L17.396 42.0791C20.0586 43.632 23.087 44.4472 26.1693 44.4409C29.6199 44.4409 32.993 43.4177 35.862 41.5007C38.7311 39.5836 40.9672 36.8589 42.2877 33.671C43.6082 30.483 43.9537 26.9752 43.2805 23.5909C42.6073 20.2066 40.9457 17.098 38.5058 14.6581C36.0659 12.2181 32.9572 10.5565 29.573 9.88335C26.1887 9.21018 22.6808 9.55567 19.4929 10.8762C16.305 12.1966 13.5802 14.4328 11.6632 17.3018C9.74617 20.1709 8.72296 23.5439 8.72296 26.9945C8.72296 30.1261 9.54512 33.1291 11.0869 35.7701L12.0072 37.3489L10.5832 42.585L15.8171 41.1566ZM4.37008 48.8025L7.31852 37.9683C5.37573 34.6379 4.35502 30.8502 4.36136 26.9945C4.36136 14.95 14.1248 5.18652 26.1693 5.18652C38.2139 5.18652 47.9773 14.95 47.9773 26.9945C47.9773 39.0391 38.2139 48.8025 26.1693 48.8025C22.3154 48.8087 18.5293 47.7888 15.1999 45.8475L4.37008 48.8025ZM18.2988 16.7622C18.5911 16.7404 18.8855 16.7404 19.1777 16.7535C19.2955 16.7622 19.4132 16.7753 19.531 16.7884C19.8777 16.8276 20.2594 17.0392 20.3881 17.3314C21.0379 18.8056 21.6704 20.2907 22.281 21.7802C22.4162 22.1117 22.3355 22.537 22.0782 22.9513C21.9012 23.2315 21.7097 23.5023 21.5046 23.7626C21.2582 24.0788 20.7283 24.6589 20.7283 24.6589C20.7283 24.6589 20.5124 24.9162 20.5952 25.2368C20.6258 25.3589 20.7261 25.5356 20.8177 25.6839L20.9463 25.891C21.5046 26.8222 22.2548 27.7665 23.1708 28.6563C23.4324 28.9093 23.6876 29.1688 23.9624 29.4108C24.983 30.3115 26.1388 31.0464 27.3862 31.5916L27.3971 31.596C27.5825 31.6767 27.6763 31.7203 27.9467 31.8359C28.0819 31.8926 28.2215 31.9427 28.3632 31.9798C28.5097 32.0171 28.664 32.0101 28.8065 31.9596C28.949 31.9092 29.0732 31.8175 29.1636 31.6963C30.7425 29.7838 30.8864 29.6595 30.8995 29.6595V29.6638C31.0092 29.5615 31.1395 29.4839 31.2817 29.4361C31.4239 29.3883 31.5746 29.3715 31.7238 29.3869C31.8547 29.3956 31.9877 29.4196 32.1098 29.4741C33.2679 30.004 35.163 30.8305 35.163 30.8305L36.4322 31.3997C36.6459 31.5022 36.84 31.7443 36.8465 31.9776C36.8553 32.1238 36.8684 32.3593 36.8182 32.7911C36.7484 33.3559 36.5783 34.0341 36.4082 34.3896C36.2917 34.6322 36.1371 34.8545 35.9502 35.0482C35.7302 35.2793 35.4893 35.4895 35.2306 35.6763C35.1411 35.7436 35.0502 35.809 34.958 35.8725C34.6867 36.0446 34.408 36.2047 34.1227 36.3523C33.5612 36.6506 32.9411 36.8218 32.3061 36.8539C31.9027 36.8757 31.4992 36.9062 31.0936 36.8844C31.0761 36.8844 29.8549 36.6947 29.8549 36.6947C26.7544 35.8792 23.8869 34.3514 21.4806 32.2328C20.9878 31.7988 20.532 31.3321 20.0653 30.8676C18.1244 28.9376 16.6589 26.8549 15.7691 24.8879C15.3137 23.9224 15.0677 22.8715 15.0473 21.8042C15.0383 20.4801 15.4711 19.1909 16.2772 18.1405C16.4364 17.9355 16.5869 17.7218 16.8464 17.4753C17.1234 17.2136 17.2979 17.0741 17.4876 16.9781C17.7398 16.8517 18.015 16.7775 18.2967 16.76L18.2988 16.7622Z"/>
</mask>
<path d="M15.8171 41.1566L17.396 42.0791C20.0586 43.632 23.087 44.4472 26.1693 44.4409C29.6199 44.4409 32.993 43.4177 35.862 41.5007C38.7311 39.5836 40.9672 36.8589 42.2877 33.671C43.6082 30.483 43.9537 26.9752 43.2805 23.5909C42.6073 20.2066 40.9457 17.098 38.5058 14.6581C36.0659 12.2181 32.9572 10.5565 29.573 9.88335C26.1887 9.21018 22.6808 9.55567 19.4929 10.8762C16.305 12.1966 13.5802 14.4328 11.6632 17.3018C9.74617 20.1709 8.72296 23.5439 8.72296 26.9945C8.72296 30.1261 9.54512 33.1291 11.0869 35.7701L12.0072 37.3489L10.5832 42.585L15.8171 41.1566ZM4.37008 48.8025L7.31852 37.9683C5.37573 34.6379 4.35502 30.8502 4.36136 26.9945C4.36136 14.95 14.1248 5.18652 26.1693 5.18652C38.2139 5.18652 47.9773 14.95 47.9773 26.9945C47.9773 39.0391 38.2139 48.8025 26.1693 48.8025C22.3154 48.8087 18.5293 47.7888 15.1999 45.8475L4.37008 48.8025ZM18.2988 16.7622C18.5911 16.7404 18.8855 16.7404 19.1777 16.7535C19.2955 16.7622 19.4132 16.7753 19.531 16.7884C19.8777 16.8276 20.2594 17.0392 20.3881 17.3314C21.0379 18.8056 21.6704 20.2907 22.281 21.7802C22.4162 22.1117 22.3355 22.537 22.0782 22.9513C21.9012 23.2315 21.7097 23.5023 21.5046 23.7626C21.2582 24.0788 20.7283 24.6589 20.7283 24.6589C20.7283 24.6589 20.5124 24.9162 20.5952 25.2368C20.6258 25.3589 20.7261 25.5356 20.8177 25.6839L20.9463 25.891C21.5046 26.8222 22.2548 27.7665 23.1708 28.6563C23.4324 28.9093 23.6876 29.1688 23.9624 29.4108C24.983 30.3115 26.1388 31.0464 27.3862 31.5916L27.3971 31.596C27.5825 31.6767 27.6763 31.7203 27.9467 31.8359C28.0819 31.8926 28.2215 31.9427 28.3632 31.9798C28.5097 32.0171 28.664 32.0101 28.8065 31.9596C28.949 31.9092 29.0732 31.8175 29.1636 31.6963C30.7425 29.7838 30.8864 29.6595 30.8995 29.6595V29.6638C31.0092 29.5615 31.1395 29.4839 31.2817 29.4361C31.4239 29.3883 31.5746 29.3715 31.7238 29.3869C31.8547 29.3956 31.9877 29.4196 32.1098 29.4741C33.2679 30.004 35.163 30.8305 35.163 30.8305L36.4322 31.3997C36.6459 31.5022 36.84 31.7443 36.8465 31.9776C36.8553 32.1238 36.8684 32.3593 36.8182 32.7911C36.7484 33.3559 36.5783 34.0341 36.4082 34.3896C36.2917 34.6322 36.1371 34.8545 35.9502 35.0482C35.7302 35.2793 35.4893 35.4895 35.2306 35.6763C35.1411 35.7436 35.0502 35.809 34.958 35.8725C34.6867 36.0446 34.408 36.2047 34.1227 36.3523C33.5612 36.6506 32.9411 36.8218 32.3061 36.8539C31.9027 36.8757 31.4992 36.9062 31.0936 36.8844C31.0761 36.8844 29.8549 36.6947 29.8549 36.6947C26.7544 35.8792 23.8869 34.3514 21.4806 32.2328C20.9878 31.7988 20.532 31.3321 20.0653 30.8676C18.1244 28.9376 16.6589 26.8549 15.7691 24.8879C15.3137 23.9224 15.0677 22.8715 15.0473 21.8042C15.0383 20.4801 15.4711 19.1909 16.2772 18.1405C16.4364 17.9355 16.5869 17.7218 16.8464 17.4753C17.1234 17.2136 17.2979 17.0741 17.4876 16.9781C17.7398 16.8517 18.015 16.7775 18.2967 16.76L18.2988 16.7622Z" fill="#025319"/>
<path d="M15.8171 41.1566L17.3305 38.5663L16.2427 37.9308L15.0272 38.2625L15.8171 41.1566ZM17.396 42.0791L15.8826 44.6694L15.8846 44.6706L17.396 42.0791ZM26.1693 44.4409V41.4409L26.1632 41.4409L26.1693 44.4409ZM8.72296 26.9945H5.72296H8.72296ZM11.0869 35.7701L13.6788 34.2593L13.6777 34.2575L11.0869 35.7701ZM12.0072 37.3489L14.9021 38.1363L15.2318 36.9238L14.5991 35.8382L12.0072 37.3489ZM10.5832 42.585L7.68833 41.7977L6.31138 46.8606L11.373 45.4792L10.5832 42.585ZM4.37008 48.8025L1.47536 48.0147L0.0974355 53.078L5.15978 51.6967L4.37008 48.8025ZM7.31852 37.9683L10.2132 38.7561L10.5434 37.5428L9.90984 36.4566L7.31852 37.9683ZM4.36136 26.9945L7.36136 26.9994V26.9945H4.36136ZM26.1693 48.8025V45.8025L26.1645 45.8025L26.1693 48.8025ZM15.1999 45.8475L16.7111 43.2559L15.6241 42.6221L14.4102 42.9533L15.1999 45.8475ZM18.2988 16.7622L16.177 18.883L17.1498 19.8563L18.5221 19.7539L18.2988 16.7622ZM19.1777 16.7535L19.3993 13.7617L19.3556 13.7584L19.3119 13.7565L19.1777 16.7535ZM19.531 16.7884L19.8685 13.8074L19.8623 13.8067L19.531 16.7884ZM20.3881 17.3314L17.6424 18.5403L17.6429 18.5415L20.3881 17.3314ZM22.281 21.7802L25.0588 20.6472L25.0568 20.6423L22.281 21.7802ZM22.0782 22.9513L24.6145 24.5534L24.6206 24.5438L24.6267 24.5341L22.0782 22.9513ZM21.5046 23.7626L19.1484 21.9057L19.1433 21.9121L19.1383 21.9185L21.5046 23.7626ZM20.7283 24.6589L18.5133 22.6355L18.4707 22.6822L18.43 22.7307L20.7283 24.6589ZM20.5952 25.2368L23.5057 24.5092L23.5027 24.4976L23.4998 24.486L20.5952 25.2368ZM20.8177 25.6839L18.2653 27.2603L18.2692 27.2666L20.8177 25.6839ZM20.9463 25.891L23.5193 24.3484L23.5073 24.3283L23.4948 24.3083L20.9463 25.891ZM23.1708 28.6563L21.0804 30.8081L21.0857 30.8132L23.1708 28.6563ZM23.9624 29.4108L25.9474 27.1615L25.9455 27.1598L23.9624 29.4108ZM27.3862 31.5916L26.1848 34.3406L26.2282 34.3595L26.2722 34.3771L27.3862 31.5916ZM27.3971 31.596L28.5945 28.8453L28.5531 28.8273L28.5112 28.8105L27.3971 31.596ZM27.9467 31.8359L26.7676 34.5945L26.7771 34.5985L26.7865 34.6025L27.9467 31.8359ZM28.3632 31.9798L27.6041 34.8822L27.6135 34.8846L27.6228 34.887L28.3632 31.9798ZM29.1636 31.6963L26.8501 29.7864L26.8027 29.8438L26.7583 29.9034L29.1636 31.6963ZM30.8995 29.6595H33.8995V26.6595H30.8995V29.6595ZM30.8995 29.6638H27.8995V36.5643L32.9457 31.8577L30.8995 29.6638ZM31.7238 29.3869L31.4174 32.3712L31.4707 32.3766L31.5243 32.3802L31.7238 29.3869ZM32.1098 29.4741L33.3582 26.7462L33.3455 26.7404L33.3328 26.7347L32.1098 29.4741ZM35.163 30.8305L36.3905 28.0932L36.3764 28.0869L36.3623 28.0807L35.163 30.8305ZM36.4322 31.3997L37.7295 28.6947L37.6948 28.6781L37.6598 28.6624L36.4322 31.3997ZM36.8465 31.9776L33.8477 32.0617L33.8491 32.1091L33.8519 32.1564L36.8465 31.9776ZM36.8182 32.7911L39.7956 33.1589L39.7969 33.1481L39.7982 33.1372L36.8182 32.7911ZM36.4082 34.3896L39.1126 35.6883L39.1143 35.6846L36.4082 34.3896ZM35.9502 35.0482L33.7913 32.9651L33.7846 32.9721L33.7779 32.9792L35.9502 35.0482ZM35.2306 35.6763L33.4745 33.2439L33.4508 33.261L33.4275 33.2786L35.2306 35.6763ZM34.958 35.8725L36.5651 38.4057L36.6132 38.3753L36.66 38.343L34.958 35.8725ZM34.1227 36.3523L32.7443 33.6878L32.7298 33.6953L32.7154 33.7029L34.1227 36.3523ZM32.3061 36.8539L32.1546 33.8577L32.1442 33.8583L32.3061 36.8539ZM31.0936 36.8844L31.2547 33.8888L31.1742 33.8844H31.0936V36.8844ZM29.8549 36.6947L29.0918 39.596L29.2414 39.6354L29.3944 39.6591L29.8549 36.6947ZM21.4806 32.2328L19.4981 34.4843L19.4982 34.4845L21.4806 32.2328ZM20.0653 30.8676L22.1816 28.7413L22.1806 28.7403L20.0653 30.8676ZM15.7691 24.8879L18.5025 23.6515L18.4926 23.6297L18.4824 23.608L15.7691 24.8879ZM15.0473 21.8042L12.0473 21.8246L12.0475 21.8431L12.0478 21.8616L15.0473 21.8042ZM16.2772 18.1405L13.9078 16.3004L13.9026 16.3072L13.8973 16.314L16.2772 18.1405ZM16.8464 17.4753L14.7861 15.2948L14.7807 15.2999L16.8464 17.4753ZM17.4876 16.9781L16.1435 14.296L16.1337 14.301L17.4876 16.9781ZM18.2967 16.76L20.4185 14.6392L19.4616 13.6819L18.1108 13.7658L18.2967 16.76ZM14.3037 43.7469L15.8826 44.6694L18.9094 39.4888L17.3305 38.5663L14.3037 43.7469ZM15.8846 44.6706C19.0078 46.4921 22.56 47.4483 26.1755 47.4409L26.1632 41.4409C23.614 41.4461 21.1094 40.7719 18.9074 39.4876L15.8846 44.6706ZM26.1693 47.4409C30.2133 47.4409 34.1664 46.2417 37.5288 43.9951L34.1953 39.0063C31.8196 40.5936 29.0266 41.4409 26.1693 41.4409V47.4409ZM37.5288 43.9951C40.8911 41.7484 43.5118 38.5551 45.0594 34.819L39.5161 32.5229C38.4227 35.1626 36.571 37.4189 34.1953 39.0063L37.5288 43.9951ZM45.0594 34.819C46.6069 31.0829 47.0118 26.9718 46.2229 23.0056L40.3382 24.1762C40.8956 26.9785 40.6095 29.8832 39.5161 32.5229L45.0594 34.819ZM46.2229 23.0056C45.4339 19.0394 43.4866 15.3962 40.6271 12.5367L36.3845 16.7794C38.4049 18.7997 39.7807 21.3738 40.3382 24.1762L46.2229 23.0056ZM40.6271 12.5367C37.7677 9.67725 34.1245 7.72992 30.1582 6.94099L28.9877 12.8257C31.79 13.3831 34.3641 14.759 36.3845 16.7794L40.6271 12.5367ZM30.1582 6.94099C26.192 6.15207 22.0809 6.55697 18.3449 8.10451L20.641 13.6478C23.2807 12.5544 26.1854 12.2683 28.9877 12.8257L30.1582 6.94099ZM18.3449 8.10451C14.6088 9.65205 11.4155 12.2727 9.16879 15.6351L14.1576 18.9685C15.745 16.5928 18.0012 14.7412 20.641 13.6478L18.3449 8.10451ZM9.16879 15.6351C6.92212 18.9975 5.72296 22.9506 5.72296 26.9945H11.723C11.723 24.1373 12.5702 21.3442 14.1576 18.9685L9.16879 15.6351ZM5.72296 26.9945C5.72296 30.6575 6.68627 34.1825 8.49615 37.2826L13.6777 34.2575C12.404 32.0757 11.723 29.5948 11.723 26.9945H5.72296ZM8.49509 37.2808L9.41538 38.8597L14.5991 35.8382L13.6788 34.2593L8.49509 37.2808ZM9.11239 36.5616L7.68833 41.7977L13.478 43.3724L14.9021 38.1363L9.11239 36.5616ZM11.373 45.4792L16.607 44.0508L15.0272 38.2625L9.79331 39.6909L11.373 45.4792ZM7.2648 49.5903L10.2132 38.7561L4.4238 37.1805L1.47536 48.0147L7.2648 49.5903ZM9.90984 36.4566C8.23554 33.5865 7.3559 30.3222 7.36135 26.9994L1.36136 26.9896C1.35415 31.3781 2.51592 35.6893 4.72721 39.4799L9.90984 36.4566ZM7.36136 26.9945C7.36136 16.6068 15.7817 8.18652 26.1693 8.18652V2.18652C12.4679 2.18652 1.36136 13.2931 1.36136 26.9945H7.36136ZM26.1693 8.18652C36.557 8.18652 44.9773 16.6068 44.9773 26.9945H50.9773C50.9773 13.2931 39.8708 2.18652 26.1693 2.18652V8.18652ZM44.9773 26.9945C44.9773 37.3822 36.557 45.8025 26.1693 45.8025V51.8025C39.8708 51.8025 50.9773 40.6959 50.9773 26.9945H44.9773ZM26.1645 45.8025C22.8432 45.8079 19.5803 44.9289 16.7111 43.2559L13.6888 48.4391C17.4782 50.6487 21.7876 51.8096 26.1742 51.8025L26.1645 45.8025ZM14.4102 42.9533L3.58038 45.9083L5.15978 51.6967L15.9896 48.7417L14.4102 42.9533ZM18.5221 19.7539C18.6675 19.743 18.8388 19.7413 19.0435 19.7505L19.3119 13.7565C18.9321 13.7395 18.5146 13.7378 18.0756 13.7705L18.5221 19.7539ZM18.9561 19.7453C19.0097 19.7493 19.0727 19.7559 19.1997 19.77L19.8623 13.8067C19.7538 13.7947 19.5812 13.7752 19.3993 13.7617L18.9561 19.7453ZM19.1935 19.7693C18.9219 19.7386 18.6881 19.6535 18.4806 19.5271C18.2945 19.4137 17.8996 19.1245 17.6424 18.5403L23.1337 16.1225C22.7478 15.2461 22.0977 14.7049 21.602 14.4029C21.0849 14.0879 20.4868 13.8774 19.8685 13.8074L19.1935 19.7693ZM17.6429 18.5415C18.2827 19.9927 18.9048 21.4537 19.5052 22.9182L25.0568 20.6423C24.4359 19.1278 23.7932 17.6186 23.1332 16.1213L17.6429 18.5415ZM19.5032 22.9133C19.3176 22.4584 19.3291 22.0572 19.373 21.8101C19.416 21.5679 19.4962 21.4224 19.5297 21.3686L24.6267 24.5341C25.155 23.6834 25.698 22.2143 25.0588 20.6472L19.5032 22.9133ZM19.5418 21.3492C19.4204 21.5414 19.2891 21.7271 19.1484 21.9057L23.8609 25.6195C24.1304 25.2774 24.382 24.9216 24.6145 24.5534L19.5418 21.3492ZM19.1383 21.9185C19.079 21.9947 18.9414 22.1558 18.7772 22.3414C18.7036 22.4246 18.6364 22.4994 18.5876 22.5535C18.5634 22.5804 18.544 22.6018 18.531 22.616C18.5246 22.6232 18.5197 22.6285 18.5167 22.6318C18.5152 22.6334 18.5141 22.6346 18.5136 22.6352C18.5133 22.6355 18.5131 22.6357 18.5131 22.6358C18.5131 22.6358 18.5131 22.6358 18.5131 22.6357C18.5131 22.6357 18.5132 22.6357 18.5132 22.6356C18.5132 22.6356 18.5133 22.6356 18.5133 22.6356C18.5133 22.6355 18.5133 22.6355 20.7283 24.6589C22.9432 26.6823 22.9432 26.6822 22.9433 26.6822C22.9433 26.6822 22.9433 26.6821 22.9434 26.6821C22.9434 26.682 22.9435 26.6819 22.9436 26.6818C22.9438 26.6816 22.944 26.6814 22.9442 26.6812C22.9447 26.6806 22.9453 26.68 22.946 26.6792C22.9474 26.6776 22.9494 26.6755 22.9518 26.6728C22.9567 26.6675 22.9635 26.66 22.972 26.6506C22.989 26.6319 23.0129 26.6055 23.0422 26.5731C23.1005 26.5085 23.1811 26.4186 23.2708 26.3172C23.4332 26.1337 23.6838 25.8467 23.8709 25.6067L19.1383 21.9185ZM20.7283 24.6589C18.43 22.7307 18.4292 22.7316 18.4285 22.7325C18.4282 22.7328 18.4275 22.7337 18.4269 22.7343C18.4259 22.7355 18.4249 22.7367 18.4239 22.738C18.4218 22.7404 18.4197 22.7429 18.4177 22.7455C18.4135 22.7505 18.4092 22.7557 18.4048 22.7611C18.3961 22.7717 18.3871 22.7829 18.3778 22.7946C18.3592 22.818 18.3393 22.8437 18.3183 22.8716C18.2767 22.9272 18.23 22.993 18.1808 23.0686C18.0846 23.2166 17.9677 23.4193 17.8625 23.6712C17.6578 24.1611 17.4348 24.9976 17.6907 25.9876L23.4998 24.486C23.6728 25.1555 23.5163 25.7029 23.3988 25.984C23.3372 26.1315 23.2691 26.2499 23.2108 26.3396C23.1806 26.386 23.1501 26.4292 23.1199 26.4695C23.1048 26.4897 23.0894 26.5096 23.0739 26.5291C23.0662 26.5388 23.0583 26.5485 23.0504 26.5582C23.0465 26.563 23.0425 26.5678 23.0385 26.5727C23.0366 26.5751 23.0346 26.5775 23.0326 26.5799C23.0315 26.5811 23.0305 26.5823 23.0295 26.5835C23.029 26.5841 23.0283 26.585 23.028 26.5853C23.0273 26.5862 23.0265 26.5871 20.7283 24.6589ZM17.6848 25.9644C17.8477 26.6162 18.22 27.187 18.2653 27.2603L23.3701 24.1074C23.3421 24.0621 23.3384 24.0534 23.3479 24.0717C23.3535 24.0825 23.3722 24.1191 23.3963 24.1764C23.4174 24.2268 23.4644 24.3441 23.5057 24.5092L17.6848 25.9644ZM18.2692 27.2666L18.3978 27.4738L23.4948 24.3083L23.3662 24.1011L18.2692 27.2666ZM18.3733 27.4336C19.0774 28.608 19.9953 29.754 21.0804 30.8081L25.2611 26.5044C24.5143 25.779 23.9319 25.0365 23.5193 24.3484L18.3733 27.4336ZM21.0857 30.8132C21.2746 30.9959 21.6351 31.3587 21.9793 31.6619L25.9455 27.1598C25.7401 26.9788 25.5903 26.8227 25.2558 26.4993L21.0857 30.8132ZM21.9774 31.6602C23.2335 32.7687 24.6541 33.6715 26.1848 34.3406L28.5877 28.8427C27.6236 28.4214 26.7325 27.8543 25.9474 27.1615L21.9774 31.6602ZM26.2722 34.3771L26.2831 34.3815L28.5112 28.8105L28.5003 28.8062L26.2722 34.3771ZM26.1998 34.3467C26.3285 34.4027 26.4963 34.4785 26.7676 34.5945L29.1258 29.0773C28.8562 28.9621 28.8365 28.9506 28.5945 28.8453L26.1998 34.3467ZM26.7865 34.6025C27.0152 34.6984 27.2918 34.8005 27.6041 34.8822L29.1223 29.0774C29.1382 29.0816 29.1448 29.0841 29.1411 29.0828C29.1374 29.0815 29.1264 29.0775 29.1069 29.0693L26.7865 34.6025ZM27.6228 34.887C28.3451 35.071 29.1056 35.0363 29.8082 34.7875L27.8048 29.1318C28.2223 28.9839 28.6744 28.9633 29.1036 29.0726L27.6228 34.887ZM29.8082 34.7875C30.5107 34.5386 31.1235 34.0868 31.5689 33.4892L26.7583 29.9034C27.023 29.5483 27.3872 29.2797 27.8048 29.1318L29.8082 34.7875ZM31.4771 33.6062C32.2629 32.6543 32.6736 32.1694 32.8822 31.9296C32.9916 31.8038 33.0199 31.7749 33.0056 31.7898C32.9995 31.7962 32.9843 31.8118 32.9621 31.8334C32.9422 31.8528 32.9012 31.892 32.8453 31.9403C32.8025 31.9772 32.6816 32.0801 32.509 32.1903C32.4219 32.2459 32.264 32.3406 32.0521 32.4289C31.9424 32.4747 31.794 32.5289 31.6135 32.5732C31.4348 32.617 31.1908 32.6595 30.8995 32.6595V26.6595C29.9533 26.6595 29.3027 27.1188 29.2814 27.1324C29.1045 27.2452 28.9776 27.3527 28.9265 27.3968C28.8124 27.4952 28.7237 27.5864 28.6839 27.6277C28.5896 27.7256 28.4808 27.8474 28.3552 27.9918C28.0939 28.2922 27.6431 28.8258 26.8501 29.7864L31.4771 33.6062ZM27.8995 29.6595V29.6638H33.8995V29.6595H27.8995ZM32.9457 31.8577C32.7424 32.0473 32.5008 32.1913 32.2371 32.2799L30.3262 26.5923C29.7783 26.7764 29.276 27.0757 28.8533 27.47L32.9457 31.8577ZM32.2371 32.2799C31.9735 32.3684 31.694 32.3996 31.4174 32.3712L32.0303 26.4025C31.4553 26.3435 30.8742 26.4082 30.3262 26.5923L32.2371 32.2799ZM31.5243 32.3802C31.4437 32.3748 31.1967 32.3518 30.8869 32.2135L33.3328 26.7347C32.7787 26.4873 32.2657 26.4163 31.9234 26.3935L31.5243 32.3802ZM30.8615 32.202C31.4603 32.476 32.2393 32.8221 32.8598 33.0958C33.1719 33.2335 33.4474 33.3544 33.6449 33.441C33.7437 33.4842 33.8231 33.519 33.8779 33.5429C33.9053 33.5549 33.9266 33.5642 33.9411 33.5705C33.9484 33.5737 33.9539 33.5761 33.9577 33.5778C33.9596 33.5786 33.9611 33.5793 33.962 33.5797C33.9625 33.5799 33.9629 33.5801 33.9632 33.5802C33.9633 33.5802 33.9634 33.5803 33.9635 33.5803C33.9636 33.5803 33.9636 33.5804 33.9636 33.5804C33.9636 33.5804 33.9637 33.5804 35.163 30.8305C36.3623 28.0807 36.3623 28.0807 36.3623 28.0807C36.3623 28.0807 36.3623 28.0807 36.3622 28.0807C36.3622 28.0807 36.3621 28.0806 36.362 28.0806C36.3619 28.0805 36.3615 28.0804 36.3611 28.0802C36.3603 28.0798 36.359 28.0793 36.3573 28.0785C36.3538 28.077 36.3486 28.0747 36.3417 28.0717C36.3279 28.0657 36.3073 28.0567 36.2807 28.045C36.2273 28.0217 36.1496 27.9878 36.0526 27.9453C35.8586 27.8603 35.588 27.7415 35.2815 27.6063C34.6649 27.3342 33.9174 27.0021 33.3582 26.7462L30.8615 32.202ZM33.9354 33.5679L35.2046 34.1371L37.6598 28.6624L36.3905 28.0932L33.9354 33.5679ZM35.1349 34.1047C34.7638 33.9268 34.496 33.6808 34.3079 33.4273C34.1277 33.1845 33.8662 32.7221 33.8477 32.0617L39.8454 31.8936C39.8203 30.9998 39.4585 30.2998 39.1262 29.8519C38.786 29.3934 38.3143 28.9752 37.7295 28.6947L35.1349 34.1047ZM33.8519 32.1564C33.8538 32.1894 33.8543 32.1989 33.8546 32.207C33.8548 32.2133 33.8549 32.2213 33.8548 32.2336C33.8544 32.257 33.8524 32.3227 33.8382 32.4449L39.7982 33.1372C39.8743 32.4817 39.8569 32.062 39.8412 31.7989L33.8519 32.1564ZM33.8408 32.4232C33.8228 32.5691 33.7878 32.7551 33.7437 32.9282C33.7224 33.0118 33.7032 33.0758 33.6893 33.1173C33.6729 33.1662 33.6746 33.1521 33.7021 33.0947L39.1143 35.6846C39.4792 34.9221 39.7054 33.8889 39.7956 33.1589L33.8408 32.4232ZM33.7039 33.091C33.7261 33.0446 33.7556 33.0021 33.7913 32.9651L38.1091 37.1313C38.5186 36.707 38.8573 36.2198 39.1125 35.6883L33.7039 33.091ZM33.7779 32.9792C33.6851 33.0766 33.5836 33.1652 33.4745 33.2439L36.9866 38.1086C37.395 37.8138 37.7753 37.4819 38.1226 37.1172L33.7779 32.9792ZM33.4275 33.2786C33.3712 33.3209 33.314 33.3621 33.256 33.4021L36.66 38.343C36.7864 38.2559 36.9109 38.1662 37.0336 38.074L33.4275 33.2786ZM33.3508 33.3394C33.1538 33.4643 32.9514 33.5806 32.7443 33.6878L35.5012 39.0169C35.8646 38.8288 36.2196 38.6249 36.5651 38.4057L33.3508 33.3394ZM32.7154 33.7029C32.5421 33.795 32.3506 33.8478 32.1546 33.8577L32.4576 39.8501C33.5315 39.7958 34.5804 39.5062 35.53 39.0018L32.7154 33.7029ZM32.1442 33.8583C31.6454 33.8852 31.4547 33.8995 31.2547 33.8888L30.9325 39.8801C31.5437 39.913 32.16 39.8662 32.468 39.8495L32.1442 33.8583ZM31.0936 33.8844C31.2221 33.8844 31.3233 33.8932 31.3365 33.8943C31.3711 33.8971 31.3982 33.9 31.4115 33.9014C31.4391 33.9043 31.4602 33.907 31.467 33.9079C31.4764 33.9091 31.4835 33.91 31.4867 33.9105C31.4904 33.911 31.4929 33.9113 31.4937 33.9114C31.4951 33.9116 31.4899 33.9109 31.4745 33.9086C31.4456 33.9043 31.4012 33.8976 31.3438 33.8889C31.2301 33.8716 31.0783 33.8483 30.9251 33.8246C30.7723 33.8011 30.6198 33.7775 30.5055 33.7598C30.4483 33.7509 30.4008 33.7435 30.3675 33.7384C30.3509 33.7358 30.3378 33.7337 30.329 33.7324C30.3245 33.7317 30.3211 33.7312 30.3188 33.7308C30.3177 33.7306 30.3168 33.7305 30.3163 33.7304C30.316 33.7304 30.3158 33.7303 30.3156 33.7303C30.3156 33.7303 30.3155 33.7303 30.3155 33.7303C30.3155 33.7303 30.3155 33.7303 30.3155 33.7303C30.3154 33.7303 30.3154 33.7303 29.8549 36.6947C29.3944 39.6591 29.3944 39.6591 29.3944 39.6592C29.3944 39.6592 29.3944 39.6592 29.3944 39.6592C29.3945 39.6592 29.3945 39.6592 29.3946 39.6592C29.3948 39.6592 29.395 39.6592 29.3953 39.6593C29.3959 39.6594 29.3968 39.6595 29.398 39.6597C29.4003 39.6601 29.4038 39.6606 29.4083 39.6613C29.4173 39.6627 29.4305 39.6648 29.4473 39.6674C29.4809 39.6726 29.5289 39.68 29.5865 39.689C29.7017 39.7068 29.8556 39.7306 30.0103 39.7545C30.1646 39.7783 30.3214 39.8024 30.4416 39.8207C30.5011 39.8297 30.555 39.8379 30.5963 39.844C30.6159 39.8469 30.6387 39.8502 30.6599 39.8532C30.6692 39.8545 30.688 39.8571 30.71 39.8599C30.7197 39.8612 30.743 39.8641 30.7723 39.8672C30.7864 39.8687 30.8143 39.8716 30.8494 39.8745C30.8632 39.8756 30.9648 39.8844 31.0936 39.8844V33.8844ZM30.618 33.7934C27.9689 33.0966 25.519 31.7912 23.4631 29.9811L19.4982 34.4845C22.2548 36.9115 25.5398 38.6618 29.0918 39.596L30.618 33.7934ZM23.4632 29.9812C23.0587 29.6251 22.6913 29.2486 22.1816 28.7413L17.9489 32.9939C18.3727 33.4156 18.9168 33.9725 19.4981 34.4843L23.4632 29.9812ZM22.1806 28.7403C20.4563 27.0257 19.2195 25.2367 18.5025 23.6515L13.0357 26.1242C14.0982 28.4732 15.7925 30.8495 17.95 32.9949L22.1806 28.7403ZM18.4824 23.608C18.2075 23.0253 18.0591 22.391 18.0467 21.7468L12.0478 21.8616C12.0763 23.352 12.4199 24.8195 13.0558 26.1677L18.4824 23.608ZM18.0472 21.7838C18.0427 21.1272 18.2574 20.4879 18.6572 19.9669L13.8973 16.314C12.6848 17.8939 12.0338 19.8331 12.0473 21.8246L18.0472 21.7838ZM18.6467 19.9805C18.8754 19.686 18.8592 19.7012 18.9122 19.6508L14.7807 15.2999C14.3147 15.7424 13.9975 16.185 13.9078 16.3004L18.6467 19.9805ZM18.9068 19.6559C18.9596 19.606 18.9961 19.5728 19.021 19.5508C19.0458 19.5289 19.0527 19.5239 19.0459 19.5292C19.0382 19.5353 19.0143 19.5534 18.9768 19.5777C18.938 19.6028 18.8923 19.6295 18.8415 19.6552L16.1337 14.301C15.5359 14.6033 15.1003 14.9979 14.7861 15.2948L18.9068 19.6559ZM18.8317 19.6602C18.7228 19.7147 18.6041 19.7467 18.4826 19.7543L18.1108 13.7658C17.426 13.8083 16.7569 13.9887 16.1435 14.296L18.8317 19.6602ZM16.1748 18.8808L16.177 18.883L20.4207 14.6414L20.4185 14.6392L16.1748 18.8808Z" fill="white" mask="url(#path-2-outside-1_230_10490)"/>
</g>
<defs>
<clipPath id="clip0_230_10490">
<rect width="52.3392" height="52.3392" fill="white" transform="translate(0 0.824707)"/>
</clipPath>
</defs>
</svg>
